<svg id="Layer_1" data-name="Layer 1" xmlns="http://www.w3.org/2000/svg" viewBox="0 0 374.16 82.5"><defs><style>.cls-1{fill:#32384e;}.cls-2{fill:#499188;}</style></defs><path class="cls-1" d="M82.5,65.14,79,71.1l.12.11,5.22-4.42A10.54,10.54,0,0,0,82.5,65.14Z" transform="translate(-28.76 -31.12)"/><path class="cls-1" d="M85.54,78.7,79.4,75.14l-.06.07,4.73,5.42A10.35,10.35,0,0,0,85.54,78.7Z" transform="translate(-28.76 -31.12)"/><path class="cls-1" d="M79.78,74.46l6.08,3.64a10,10,0,0,0,.75-2L79.8,74.4S79.79,74.44,79.78,74.46Z" transform="translate(-28.76 -31.12)"/><path class="cls-1" d="M83.58,81.1l-4.79-5.34-.09.07,2.86,6.69A10.82,10.82,0,0,0,83.58,81.1Z" transform="translate(-28.76 -31.12)"/><path class="cls-1" d="M71.33,82.15l3.94-6.23-.11-.07-8.37,7.8C68.31,83.17,69.82,82.68,71.33,82.15Z" transform="translate(-28.76 -31.12)"/><path class="cls-1" d="M116.37,52.59c-1,.75-2,1.49-3,2.22l-.14.1L111.74,56l-.91.65c-3.71,2.64-7.5,5.14-11.42,7.38l-4.5,2.42-2.25,1.21c-.76.39-1.53.75-2.29,1.13l-1.15.57-1.16.53-1.56.7c-.07-.25-.16-.49-.25-.73l-6.33,2.8a.29.29,0,0,1,0,.09l16-1.41,1.25-.71,4.59-2.58q2.17-1.29,4.29-2.67c.37-.25.74-.49,1.11-.75-.15.25-.32.5-.48.75-.94,1.42-1.93,2.83-2.94,4.22a111.78,111.78,0,0,1-10.2,12.08,95.57,95.57,0,0,1-25.36,18.74c-1.17.61-2.38,1.16-3.58,1.7s-2.45,1-3.67,1.56c-.62.25-1.23.53-1.85.76l-1.88.68-1.34.49-.53.15c-.6.16-1.2.34-1.79.48l-.47.11-.27.08-1.91.61c-.63.21-1.26.42-1.9.59l-3.86,1.06-3.9.92c-1.31.29-2.62.52-3.93.79q-4,.72-8,1.19l0,.07h0c0,.15-.07.31-.1.46-.14.48-.27,1-.38,1.45,0,0,0,0,0,0,.22,0,.42,0,.64,0q4.45-.3,8.9-.94c1.34-.21,2.7-.39,4-.64l4-.78,4-.92c.67-.14,1.32-.34,2-.52l2-.54c1.32-.35,2.61-.79,3.92-1.2l1.95-.63c.65-.2,1.29-.46,1.93-.69,1.28-.48,2.57-.93,3.84-1.45s2.55-1,3.79-1.63c2.43-1.09,4.81-2.31,7.14-3.61l.22-.13c2.23-1.25,4.4-2.6,6.52-4l.5-.34A104.26,104.26,0,0,0,97,85.15a117.43,117.43,0,0,0,11.17-12.21c.22-.28.44-.56.65-.85a105.44,105.44,0,0,0,11-18q1.2-2.48,2.27-5l.53-1.35-6.2,4.89Z" transform="translate(-28.76 -31.12)"/><path class="cls-1" d="M77.89,76.24l.65,7.32A9.49,9.49,0,0,0,81,82.82L78,76.2Z" transform="translate(-28.76 -31.12)"/><path class="cls-1" d="M71.91,82.49a10.13,10.13,0,0,0,2.73,1l1.54-7.18L76,76.25Z" transform="translate(-28.76 -31.12)"/><path class="cls-1" d="M77.87,83.66l-.75-7.27H77l-1.65,7.21.12,0A10,10,0,0,0,77.87,83.66Z" transform="translate(-28.76 -31.12)"/><path class="cls-1" d="M87.8,75.43l2.38-1.13,1.19-.56,1.17-.6c.78-.41,1.56-.8,2.33-1.22l.82-.46L80,73.53a.37.37,0,0,0,0,.11l7.12,2.12Z" transform="translate(-28.76 -31.12)"/><path class="cls-1" d="M74.12,72,68,68.36a10.1,10.1,0,0,0-1,2.43l7,1.51A1.69,1.69,0,0,1,74.12,72Z" transform="translate(-28.76 -31.12)"/><path class="cls-1" d="M74.72,71.16,70.1,65.85a10.37,10.37,0,0,0-1.74,1.94l6.17,3.58Z" transform="translate(-28.76 -31.12)"/><path class="cls-1" d="M127.55,31.12a113.39,113.39,0,0,0-14.92,1.6c-1.25.24-2.52.45-3.78.71l-3.75.85-3.72,1c-.63.16-1.23.36-1.84.55l-1.84.57c-1.24.36-2.44.8-3.66,1.23l-1.81.64c-.61.22-1.2.48-1.8.71-1.19.5-2.39.95-3.57,1.48s-2.36,1-3.52,1.63Q80,43.71,76.73,45.65l-.2.12q-3.09,1.88-6,4l-.46.33A97,97,0,0,0,58.26,60.2,108.65,108.65,0,0,0,48.1,72a126.66,126.66,0,0,0-8.47,13l-2.8,5.15,5.75-.89a164.53,164.53,0,0,0,20.6-4.54c1-.28,2-.58,3-.88l8.46-8.5-.17-.21-13.19,7,0,0,12.84-7.64c0-.12-.09-.25-.12-.38l-7.28.65a10,10,0,0,0,.88,3.07c-1.93.6-3.87,1.17-5.81,1.69q-7,1.88-14.21,3.13C49,80,50.61,77.49,52.32,75a103.4,103.4,0,0,1,9.24-11.63A89.62,89.62,0,0,1,84.88,45c1.09-.61,2.2-1.16,3.32-1.71s2.27-1,3.41-1.56c.57-.25,1.13-.53,1.71-.76l1.75-.7c1.16-.46,2.32-1,3.51-1.34l1.77-.63c.59-.2,1.18-.43,1.78-.6l3.6-1.11,3.63-1c1.22-.3,2.45-.56,3.68-.85a111.75,111.75,0,0,1,14.23-2.12h.13c.12-.52.25-1,.36-1.56Z" transform="translate(-28.76 -31.12)"/><path class="cls-1" d="M66.67,72.21a9.89,9.89,0,0,0-.07,1.88l7.23-.75v0a2.45,2.45,0,0,1,0-.27l-7-1.61C66.75,71.69,66.71,72,66.67,72.21Z" transform="translate(-28.76 -31.12)"/><path class="cls-1" d="M84.74,67.23l-5.13,4.6,0,.1L86,69.23A9.82,9.82,0,0,0,84.74,67.23Z" transform="translate(-28.76 -31.12)"/><path class="cls-1" d="M78.26,70.55l.15.08,3.52-5.86a10,10,0,0,0-2.22-1Z" transform="translate(-28.76 -31.12)"/><path class="cls-1" d="M76.61,63.37l.71,6.9a1.38,1.38,0,0,1,.2,0l1.53-6.67c-.31-.07-.63-.13-1-.18A10.71,10.71,0,0,0,76.61,63.37Z" transform="translate(-28.76 -31.12)"/><path class="cls-1" d="M76.54,70.26l-.61-6.86a10.06,10.06,0,0,0-2.46.51L76.3,70.3Z" transform="translate(-28.76 -31.12)"/><polygon class="cls-1" points="47.83 39.84 47.84 39.86 47.84 39.84 47.83 39.84"/><path class="cls-1" d="M70.62,65.43l4.71,5.25.23-.13-2.72-6.4A10,10,0,0,0,70.62,65.43Z" transform="translate(-28.76 -31.12)"/><path class="cls-2" d="M153.87,50.19V55.5L149.31,52a4.89,4.89,0,0,0-1.24-.73,3.34,3.34,0,0,0-1.24-.24,4.92,4.92,0,0,0-3.58,1.47,4.77,4.77,0,0,0-1.5,3.55,4.93,4.93,0,0,0,.85,2.89A12.36,12.36,0,0,0,146,61.8L150.84,65a10.63,10.63,0,0,1,3.31,3.07,6.9,6.9,0,0,1,.91,3.66,8.05,8.05,0,0,1-2.78,6.36,10.84,10.84,0,0,1-7.38,2.43,19.57,19.57,0,0,1-3.63-.35,23.55,23.55,0,0,1-3.75-1V73.78l4.88,3.73a6,6,0,0,0,1.29.75,3,3,0,0,0,1.14.22A6.57,6.57,0,0,0,149.3,77,4.88,4.88,0,0,0,151,73.13a4.29,4.29,0,0,0-.69-2.42,9.63,9.63,0,0,0-2.53-2.33l-5.4-3.73a11.74,11.74,0,0,1-3.49-3.36,7.45,7.45,0,0,1-1-3.95,7.37,7.37,0,0,1,2.61-5.79,9.75,9.75,0,0,1,6.66-2.28,22.67,22.67,0,0,1,3.19.24A33.56,33.56,0,0,1,153.87,50.19Z" transform="translate(-28.76 -31.12)"/><path class="cls-2" d="M163.2,65.26q0-7.34,3.72-11.66a12.54,12.54,0,0,1,10-4.33,11.67,11.67,0,0,1,9.36,4.17q3.52,4.17,3.53,11.12,0,7.31-3.75,11.65a12.56,12.56,0,0,1-10,4.34,11.63,11.63,0,0,1-9.34-4.18Q163.21,72.19,163.2,65.26Zm13.27-13.92a7.2,7.2,0,0,0-6.3,3.51c-1.54,2.34-2.31,5.54-2.31,9.62q0,6.54,2.35,10.3a7.34,7.34,0,0,0,12.66.24q2.3-3.53,2.3-9.66,0-6.52-2.34-10.27A7.19,7.19,0,0,0,176.47,51.34Z" transform="translate(-28.76 -31.12)"/><path class="cls-2" d="M196.75,49.7h5.49L217,72.3v-16a13.26,13.26,0,0,0-.42-3.63,13.79,13.79,0,0,0-1.29-3h5.75a11.92,11.92,0,0,0-1.3,2.91,13.9,13.9,0,0,0-.41,3.7V80.08h-2L200.82,54.89v18.6a12.84,12.84,0,0,0,.4,3.51,12,12,0,0,0,1.24,2.85h-5.71A11.77,11.77,0,0,0,198,76.94a14,14,0,0,0,.4-3.72V56.31a13.88,13.88,0,0,0-.4-3.71A11.71,11.71,0,0,0,196.75,49.7Z" transform="translate(-28.76 -31.12)"/><path class="cls-2" d="M228.93,49.7h7.4a12.09,12.09,0,0,0-1.25,2.85,13.23,13.23,0,0,0-.39,3.49V73.49a13.29,13.29,0,0,0,.39,3.51,12.09,12.09,0,0,0,1.25,2.85h-7.4a12.87,12.87,0,0,0,1.29-3,13.31,13.31,0,0,0,.42-3.65V56.31a13.26,13.26,0,0,0-.42-3.63A12.87,12.87,0,0,0,228.93,49.7Z" transform="translate(-28.76 -31.12)"/><path class="cls-2" d="M251.82,49.7h8.3a13.4,13.4,0,0,0-1.1,1.71,2.27,2.27,0,0,0-.3,1,3.39,3.39,0,0,0,.14.78c.09.35.23.81.43,1.4l7,21,7.38-22a5.16,5.16,0,0,0,.2-.77,3.39,3.39,0,0,0,.07-.67,4.63,4.63,0,0,0-1-2.11l-.24-.36h6.86a14.4,14.4,0,0,0-1.93,2.44A17.34,17.34,0,0,0,276.17,55L266.8,79.85h-3.11l-8.61-25a12,12,0,0,0-3.26-5.1Z" transform="translate(-28.76 -31.12)"/><path class="cls-2" d="M284.69,49.7h7.4a12.51,12.51,0,0,0-1.25,2.85,13.23,13.23,0,0,0-.39,3.49V73.49a13.29,13.29,0,0,0,.39,3.51,12.51,12.51,0,0,0,1.25,2.85h-7.4a13.37,13.37,0,0,0,1.3-3,13.76,13.76,0,0,0,.41-3.65V56.31a13.7,13.7,0,0,0-.41-3.63A13.37,13.37,0,0,0,284.69,49.7Z" transform="translate(-28.76 -31.12)"/><path class="cls-2" d="M317.66,50.19V55.5L313.09,52a5,5,0,0,0-1.23-.73,3.37,3.37,0,0,0-1.24-.24A4.94,4.94,0,0,0,307,52.49,4.8,4.8,0,0,0,305.54,56a5,5,0,0,0,.84,2.89,12.36,12.36,0,0,0,3.36,2.87L314.62,65a10.68,10.68,0,0,1,3.32,3.07,6.9,6.9,0,0,1,.91,3.66,8,8,0,0,1-2.79,6.36,10.83,10.83,0,0,1-7.37,2.43,19.76,19.76,0,0,1-3.64-.35,23.15,23.15,0,0,1-3.74-1V73.78l4.88,3.73a6.23,6.23,0,0,0,1.28.75,3.09,3.09,0,0,0,1.15.22,6.54,6.54,0,0,0,4.46-1.5,4.85,4.85,0,0,0,1.72-3.85,4.36,4.36,0,0,0-.68-2.42,9.8,9.8,0,0,0-2.53-2.33l-5.4-3.73a11.67,11.67,0,0,1-3.5-3.36,7.45,7.45,0,0,1-1-3.95,7.37,7.37,0,0,1,2.61-5.79,9.75,9.75,0,0,1,6.65-2.28,22.8,22.8,0,0,1,3.2.24A34.05,34.05,0,0,1,317.66,50.19Z" transform="translate(-28.76 -31.12)"/><path class="cls-2" d="M327.37,49.7h7.4a12.09,12.09,0,0,0-1.25,2.85,13.23,13.23,0,0,0-.39,3.49V73.49a13.29,13.29,0,0,0,.39,3.51,12.09,12.09,0,0,0,1.25,2.85h-7.4a11.82,11.82,0,0,0,1.71-6.63V56.31a11.81,11.81,0,0,0-1.71-6.61Z" transform="translate(-28.76 -31.12)"/><path class="cls-2" d="M343.51,65.26q0-7.34,3.73-11.66a12.52,12.52,0,0,1,10-4.33,11.67,11.67,0,0,1,9.36,4.17q3.52,4.17,3.53,11.12,0,7.31-3.75,11.65a12.55,12.55,0,0,1-10,4.34A11.63,11.63,0,0,1,347,76.37Q343.52,72.19,343.51,65.26Zm13.27-13.92a7.2,7.2,0,0,0-6.3,3.51c-1.54,2.34-2.31,5.54-2.31,9.62q0,6.54,2.35,10.3a7.34,7.34,0,0,0,12.66.24q2.29-3.53,2.3-9.66,0-6.52-2.34-10.27A7.19,7.19,0,0,0,356.78,51.34Z" transform="translate(-28.76 -31.12)"/><path class="cls-2" d="M378.59,49.7h5.49l14.79,22.6v-16a13.7,13.7,0,0,0-.41-3.63,13.37,13.37,0,0,0-1.3-3h5.76a11.92,11.92,0,0,0-1.3,2.91,13.9,13.9,0,0,0-.41,3.7V80.08h-2L382.66,54.89v18.6a13.29,13.29,0,0,0,.39,3.51,12.51,12.51,0,0,0,1.25,2.85h-5.71a11.77,11.77,0,0,0,1.27-2.91,14.5,14.5,0,0,0,.39-3.72V56.31a14.36,14.36,0,0,0-.39-3.71A11.71,11.71,0,0,0,378.59,49.7Z" transform="translate(-28.76 -31.12)"/><path class="cls-1" d="M192.75,103.32V90.15h2v13.17Z" transform="translate(-28.76 -31.12)"/><path class="cls-1" d="M206,103.32V90.15h3.91L213.48,102h.3V90.15h2v13.17h-3.91l-3.57-11.83H208v11.83Z" transform="translate(-28.76 -31.12)"/><path class="cls-1" d="M231.47,103.58a6.24,6.24,0,0,1-2.63-.53,4.18,4.18,0,0,1-1.8-1.55A4.57,4.57,0,0,1,226.4,99v-.47h2V99a2.59,2.59,0,0,0,.83,2.09,3.42,3.42,0,0,0,2.23.69,3.26,3.26,0,0,0,2.13-.59,1.9,1.9,0,0,0,.71-1.53,1.5,1.5,0,0,0-.34-1,2.3,2.3,0,0,0-1-.63,13.62,13.62,0,0,0-1.48-.44l-.7-.17a11.43,11.43,0,0,1-2.19-.74,3.62,3.62,0,0,1-1.44-1.18,3.28,3.28,0,0,1-.5-1.88,3.43,3.43,0,0,1,.57-2,3.7,3.7,0,0,1,1.59-1.28,5.86,5.86,0,0,1,2.39-.45,6.15,6.15,0,0,1,2.45.47,3.83,3.83,0,0,1,1.7,1.39,4,4,0,0,1,.62,2.31v.68h-2v-.68a2.38,2.38,0,0,0-.35-1.37,2,2,0,0,0-1-.77,4,4,0,0,0-1.45-.24,3.08,3.08,0,0,0-1.87.49,1.64,1.64,0,0,0-.67,1.39,1.58,1.58,0,0,0,.29,1,2,2,0,0,0,.86.63,7.4,7.4,0,0,0,1.41.44l.69.17a11.33,11.33,0,0,1,2.26.72,3.87,3.87,0,0,1,1.54,1.19,3.14,3.14,0,0,1,.56,1.94,3.59,3.59,0,0,1-.59,2.07,3.85,3.85,0,0,1-1.68,1.38A6.22,6.22,0,0,1,231.47,103.58Z" transform="translate(-28.76 -31.12)"/><path class="cls-1" d="M249.56,103.32V92h-4V90.15h10.12V92h-4v11.32Z" transform="translate(-28.76 -31.12)"/><path class="cls-1" d="M265.94,103.32V90.15h2v13.17Z" transform="translate(-28.76 -31.12)"/><path class="cls-1" d="M282.32,103.32V92h-4V90.15h10.11V92h-4v11.32Z" transform="translate(-28.76 -31.12)"/><path class="cls-1" d="M303.63,103.58A5.93,5.93,0,0,1,301,103a4,4,0,0,1-1.73-1.63,5.09,5.09,0,0,1-.62-2.59V90.15h2v8.71a2.83,2.83,0,0,0,.78,2.14,3,3,0,0,0,2.2.76,3,3,0,0,0,2.2-.76,2.86,2.86,0,0,0,.77-2.14V90.15h2V98.8a5.19,5.19,0,0,1-.6,2.59A4.07,4.07,0,0,1,306.3,103,6,6,0,0,1,303.63,103.58Z" transform="translate(-28.76 -31.12)"/><path class="cls-1" d="M322.88,103.32V92h-4V90.15H329V92h-4v11.32Z" transform="translate(-28.76 -31.12)"/><path class="cls-1" d="M339.26,103.32V90.15h8.29V92h-6.26v3.78H347v1.84h-5.74v3.85h6.36v1.85Z" transform="translate(-28.76 -31.12)"/><rect class="cls-1" x="324.76" y="58.77" width="47.49" height="2.05"/><rect class="cls-1" x="109.15" y="58.77" width="47.49" height="2.05"/></svg>